<svg xmlns="http://www.w3.org/2000/svg" viewBox="0 0 24 24">
  <path fill="#ffffff" d="M12.031 2c-5.514 0-9.997 4.48-9.997 9.996 0 1.763.46 3.484 1.33 5.003L2 22l5.127-1.337c1.472.802 3.14 1.226 4.904 1.226 5.516 0 10.003-4.48 10.003-9.996 0-5.516-4.487-9.996-10.003-9.996zm0 18.293c-1.503 0-2.983-.404-4.277-1.171l-.307-.183-3.176.829.847-3.088-.202-.321c-.845-1.341-1.293-2.9-1.293-4.51 0-4.57 3.717-8.287 8.287-8.287s8.287 3.717 8.287 8.287-3.717 8.294-8.287 8.294zm4.542-6.205c-.249-.125-1.474-.727-1.703-.81-.229-.083-.396-.125-.562.125-.166.249-.645.81-.791.977-.146.166-.292.187-.541.062s-1.054-.389-2.008-1.24c-.742-.662-1.243-1.479-1.389-1.729-.146-.249-.016-.384.109-.508.113-.112.249-.292.374-.437.125-.146.166-.249.249-.416.083-.166.042-.312-.021-.437-.062-.125-.562-1.352-.77-1.85-.203-.486-.411-.419-.562-.427l-.479-.009c-.166 0-.437.062-.666.312-.229.249-.874.853-.874 2.081 0 1.228.895 2.413 1.02 2.58.125.166 1.761 2.689 4.267 3.77.596.257 1.061.411 1.424.527.598.19 1.142.163 1.572.099.48-.072 1.474-.603 1.682-1.186.208-.583.208-1.082.146-1.186-.063-.105-.229-.167-.479-.292z"/>
</svg>
